<svg width="14" height="14" viewBox="0 0 14 14" fill="none" xmlns="http://www.w3.org/2000/svg"><path d="M6.66667 0.494873C5.79119 0.494873 4.92428 0.667312 4.11544 1.00234C3.30661 1.33737 2.57168 1.82844 1.95262 2.44749C0.702379 3.69774 0 5.39343 0 7.16154C0 10.1082 1.91333 12.6082 4.56 13.4949C4.89333 13.5482 5 13.3415 5 13.1615V12.0349C3.15333 12.4349 2.76 11.1415 2.76 11.1415C2.45333 10.3682 2.02 10.1615 2.02 10.1615C1.41333 9.74821 2.06667 9.76154 2.06667 9.76154C2.73333 9.80821 3.08667 10.4482 3.08667 10.4482C3.66667 11.4615 4.64667 11.1615 5.02667 11.0015C5.08667 10.5682 5.26 10.2749 5.44667 10.1082C3.96667 9.94154 2.41333 9.36821 2.41333 6.82821C2.41333 6.08821 2.66667 5.49487 3.1 5.02154C3.03333 4.85487 2.8 4.16154 3.16667 3.26154C3.16667 3.26154 3.72667 3.08154 5 3.94154C5.52667 3.79487 6.1 3.72154 6.66667 3.72154C7.23333 3.72154 7.80667 3.79487 8.33333 3.94154C9.60667 3.08154 10.1667 3.26154 10.1667 3.26154C10.5333 4.16154 10.3 4.85487 10.2333 5.02154C10.6667 5.49487 10.92 6.08821 10.92 6.82821C10.92 9.37487 9.36 9.93487 7.87333 10.1015C8.11333 10.3082 8.33333 10.7149 8.33333 11.3349V13.1615C8.33333 13.3415 8.44 13.5549 8.78 13.4949C11.4267 12.6015 13.3333 10.1082 13.3333 7.16154C13.3333 6.28606 13.1609 5.41915 12.8259 4.61032C12.4908 3.80148 11.9998 3.06655 11.3807 2.44749C10.7617 1.82844 10.0267 1.33737 9.21789 1.00234C8.40905 0.667312 7.54215 0.494873 6.66667 0.494873Z" fill="#ededed"/></svg>