<svg xmlns="http://www.w3.org/2000/svg" xmlns:xlink="http://www.w3.org/1999/xlink" viewBox="0 0 1000.06 201.79"><defs><style>.cls-1{fill:none;}.cls-2{clip-path:url(#clip-path);}.cls-3{fill:#00131d;}.cls-4{fill:#2f52a0;}</style><clipPath id="clip-path"><rect class="cls-1" width="1000.06" height="201.79"/></clipPath></defs><title>Element 1</title><g id="Ebene_2" data-name="Ebene 2"><g id="Ebene_1-2" data-name="Ebene 1"><g class="cls-2"><path class="cls-3" d="M17.69,155.66C17.06,155.24,0,153.14,0,133.34c0-9.05,8.22-15.58,17.06-19.59C11,107.44,7,99.64,7,89.74V78S7,46.78,38.33,46.78h43V57.52L64.66,63.21C81.29,63.21,81.29,78,81.29,78V89.74s0,31.17-31.59,31.17H38.33a44.17,44.17,0,0,1-17.9-4.84c-3.58,2.32-6.32,5.9-6.32,10.53,0,12.64,12.64,12.64,12.64,12.64H56.86S88,139.24,88,170.62c0,0,0,31.17-31.17,31.17h-28S0,201.79,0,175.25c0-19.59,17.06-19.59,17.69-19.59m11.16,0c-2.95,0-14.74,1.9-14.74,15,0,14.74,14.74,14.74,14.74,14.74h28s14.74,0,14.74-14.74c0,0,0-15-14.74-15ZM64.66,78s0-14.74-15-14.74H38.33s-15,0-15,14.74V89.74s0,14.74,15,14.74H49.7s15,0,15-14.74Z"/><path class="cls-3" d="M153.74,46.78h16.64v77.5c0,15,14.74,15,14.74,15h11.58c14.74,0,14.74-15,14.74-15V46.78h16.64V155.66h-6.74l-16.43-16.43c0,16.43-8.21,16.43-8.21,16.43H185.12s-31.38,0-31.38-31.38ZM181.33,7.4H162.8V25.72h18.53Zm38.75,0H201.55V25.72h18.53Z"/><path class="cls-3" d="M252.2,78s0-31.17,31.59-31.17h11.37s31.8,0,31.59,28H309.7s-.21-11.58-14.53-11.58H283.79s-15,0-15,14.74v46.33s0,15,15,15h11.37s14.74,0,14.74-11.79h16.64s0,28.22-31.38,28.22H283.79s-31.59,0-31.59-31.38Z"/><path class="cls-3" d="M405.63,155.66,375.09,102l-12.85,19.17v34.54H345.82V.45h16.43v99.2C373.4,84.9,390.67,62.16,402,46.78H422.9L388.57,92.27c11.79,20.85,24.22,42.33,36.22,63.39Z"/><path class="cls-3" d="M654.25,155.66,623.71,102l-12.85,19.17v34.54H594.43V.45h16.43v99.2C622,84.9,639.29,62.16,650.67,46.78h20.85L637.19,92.27c11.79,20.85,24.22,42.33,36.22,63.39Z"/><path class="cls-3" d="M759.45,78v77.71h-7l-16.22-16.43c0,16.43-8.42,16.43-8.42,16.43H716.48s-31.59,0-31.59-31.38S716.48,92.9,716.48,92.9h26.32V78c0-14.74-15-14.74-15-14.74h-35.8V46.78h35.8s31.59,0,31.59,31.17m-16.64,31.59H716.48s-15,0-15,14.74c0,15,15,15,15,15h11.37s15,0,15-15Z"/><path class="cls-3" d="M859.17,155.66H842.53V78.16c0-15-15-15-15-15H816.21c-15,0-15,15-15,15v77.5H784.61V46.78h7l16.21,16.43c0-16.43,8.43-16.43,8.43-16.43h11.37s31.59-.42,31.59,30.75Z"/><path class="cls-3" d="M901.39,47.2V170.62c0,24.85-19.79,29.91-28,31V185.15c11.58,0,11.58-14.53,11.58-14.53V47.2Zm0-30.12H885V.45h16.43Z"/><path class="cls-3" d="M1000.06,78v77.71h-7l-16.22-16.43c0,16.43-8.42,16.43-8.42,16.43H957.1s-31.59,0-31.59-31.38S957.1,92.9,957.1,92.9h26.33V78c0-14.74-15-14.74-15-14.74h-35.8V46.78h35.8s31.59,0,31.59,31.17m-16.64,31.59H957.1s-15,0-15,14.74c0,15,15,15,15,15h11.37s15,0,15-15Z"/><rect class="cls-4" x="500.83" y="94.1" width="61.65" height="61.65"/><rect class="cls-4" x="454.84" y="46.74" width="39.29" height="39.28"/><path class="cls-3" d="M123,0V123.41s0,14.53,11.58,14.53v16.43c-8.21-1.05-28-6.11-28-31V0Z"/></g></g></g></svg>