<?xml version="1.0" encoding="utf-8"?>
<!-- Generator: Adobe Illustrator 20.1.0, SVG Export Plug-In . SVG Version: 6.00 Build 0)  -->
<svg version="1.1" id="Ebene_1" xmlns="http://www.w3.org/2000/svg" xmlns:xlink="http://www.w3.org/1999/xlink" x="0px" y="0px"
	 viewBox="0 0 1000.1 201.8" style="enable-background:new 0 0 1000.1 201.8;" xml:space="preserve">
<style type="text/css">
	.st0{fill:#FFFFFF;}
</style>
<title>Element 1</title>
<g>
	<path class="st0" d="M17.7,155.7C17.1,155.2,0,153.1,0,133.3c0-9.1,8.2-15.6,17.1-19.6C11,107.4,7,99.6,7,89.7V78
		c0,0,0-31.2,31.3-31.2h43v10.7l-16.7,5.7C81.3,63.2,81.3,78,81.3,78v11.7c0,0,0,31.2-31.6,31.2H38.3c-6.2-0.3-12.3-2-17.9-4.8
		c-3.6,2.3-6.3,5.9-6.3,10.5c0,12.6,12.6,12.6,12.6,12.6h30.1c0,0,31.1,0,31.1,31.4c0,0,0,31.2-31.2,31.2h-28c0,0-28.8,0-28.8-26.5
		C0,155.7,17.1,155.7,17.7,155.7 M28.9,155.7c-3,0-14.7,1.9-14.7,15c0,14.7,14.7,14.7,14.7,14.7h28c0,0,14.7,0,14.7-14.7
		c0,0,0-15-14.7-15H28.9z M64.7,78c0,0,0-14.7-15-14.7H38.3c0,0-15,0-15,14.7v11.7c0,0,0,14.7,15,14.7h11.4c0,0,15,0,15-14.7
		L64.7,78z"/>
	<path class="st0" d="M153.7,46.8h16.6v77.5c0,15,14.7,15,14.7,15h11.6c14.7,0,14.7-15,14.7-15V46.8h16.6v108.9h-6.7l-16.4-16.4
		c0,16.4-8.2,16.4-8.2,16.4h-11.6c0,0-31.4,0-31.4-31.4L153.7,46.8z M181.3,7.4h-18.5v18.3h18.5V7.4z M220.1,7.4h-18.5v18.3h18.5
		V7.4z"/>
	<path class="st0" d="M252.2,78c0,0,0-31.2,31.6-31.2h11.4c0,0,31.8,0,31.6,28h-17c0,0-0.2-11.6-14.5-11.6h-11.4c0,0-15,0-15,14.7
		v46.3c0,0,0,15,15,15h11.4c0,0,14.7,0,14.7-11.8h16.6c0,0,0,28.2-31.4,28.2h-11.4c0,0-31.6,0-31.6-31.4L252.2,78z"/>
	<path class="st0" d="M405.6,155.7L375.1,102l-12.9,19.2v34.5h-16.4V0.4h16.4v99.2c11.1-14.7,28.4-37.5,39.8-52.9h20.9l-34.3,45.5
		c11.8,20.8,24.2,42.3,36.2,63.4H405.6z"/>
	<path class="st0" d="M654.2,155.7L623.7,102l-12.8,19.2v34.5h-16.4V0.4h16.4v99.2c11.1-14.7,28.4-37.5,39.8-52.9h20.8l-34.3,45.5
		c11.8,20.8,24.2,42.3,36.2,63.4H654.2z"/>
	<path class="st0" d="M759.5,78v77.7h-7l-16.2-16.4c0,16.4-8.4,16.4-8.4,16.4h-11.3c0,0-31.6,0-31.6-31.4s31.6-31.4,31.6-31.4h26.3
		V78c0-14.7-15-14.7-15-14.7H692V46.8h35.8C727.8,46.8,759.4,46.8,759.5,78 M742.8,109.5h-26.3c0,0-15,0-15,14.7c0,15,15,15,15,15
		h11.4c0,0,15,0,15-15L742.8,109.5z"/>
	<path class="st0" d="M859.2,155.7h-16.6V78.2c0-15-15-15-15-15h-11.3c-15,0-15,15-15,15v77.5h-16.6V46.8h7l16.2,16.4
		c0-16.4,8.4-16.4,8.4-16.4h11.4c0,0,31.6-0.4,31.6,30.8L859.2,155.7z"/>
	<path class="st0" d="M901.4,47.2v123.4c0,24.9-19.8,29.9-28,31v-16.5c11.6,0,11.6-14.5,11.6-14.5V47.2H901.4z M901.4,17.1H885V0.4
		h16.4L901.4,17.1z"/>
	<path class="st0" d="M1000.1,78v77.7h-7l-16.2-16.4c0,16.4-8.4,16.4-8.4,16.4h-11.3c0,0-31.6,0-31.6-31.4s31.6-31.4,31.6-31.4h26.3
		V78c0-14.7-15-14.7-15-14.7h-35.8V46.8h35.8C968.4,46.8,1000,46.8,1000.1,78 M983.4,109.5h-26.3c0,0-15,0-15,14.7c0,15,15,15,15,15
		h11.4c0,0,15,0,15-15L983.4,109.5z"/>
	<rect x="500.8" y="94.1" class="st0" width="61.6" height="61.7"/>
	<rect x="454.8" y="46.7" class="st0" width="39.3" height="39.3"/>
	<path class="st0" d="M123,0v123.4c0,0,0,14.5,11.6,14.5v16.4c-8.2-1.1-28-6.1-28-31V0H123z"/>
</g>
</svg>
