<?xml version="1.0" encoding="utf-8"?>
<!-- Generator: Adobe Illustrator 24.3.0, SVG Export Plug-In . SVG Version: 6.00 Build 0)  -->
<svg version="1.1" id="Layer_1" xmlns="http://www.w3.org/2000/svg" xmlns:xlink="http://www.w3.org/1999/xlink" x="0px" y="0px"
	 viewBox="0 0 687.4 94.3" style="enable-background:new 0 0 687.4 94.3;" xml:space="preserve">
<style type="text/css">
	.st0{fill:#5CBBFF;}
	.st1{fill:#0072C6;}
</style>
<rect x="478.7" y="24.6" class="st0" width="46.5" height="23.2"/>
<path d="M580.7,24.6v47.3c0,8.3-2.5,14.3-7.6,17.9c-3.4,2.3-7.8,3.5-13.2,3.5c-5.2,0-10-1.4-13.6-4.1c-3.7-2.7-6.1-6.9-6.4-11.8
	h10.7c0.5,4,3.5,7.3,9.6,7.3c6.8,0,10-4,10-11.4v-9.1c-2.6,5.3-7.1,8.1-13.3,8.1c-11.5,0-19.1-9.7-19.1-24.5
	c0-14.7,7.6-24.4,19.1-24.4c6.2,0,10.7,2.7,13.3,8.1v-6.9H580.7z M570.4,47.8c0-9.5-4.1-15-11.1-15c-7,0-10.9,5.4-10.9,15
	c0,9.6,3.9,15,10.9,15C566.3,62.8,570.4,57.3,570.4,47.8"/>
<path d="M588.8,47.8c0-14.7,7.6-24.4,19.1-24.4c6.2,0,10.7,2.7,13.4,8.1v-6.9h10.5v46.5h-10.5v-7c-2.7,5.4-7.2,8.2-13.4,8.2
	C596.4,72.3,588.8,62.6,588.8,47.8 M621.4,47.8c0-9.5-4.1-15-11.1-15c-7,0-10.9,5.4-10.9,15c0,9.6,3.9,15.1,10.9,15.1
	C617.3,62.9,621.4,57.4,621.4,47.8"/>
<path d="M686.4,47.8c0,14.8-7.6,24.5-19.1,24.5c-6.1,0-10.7-2.8-13.4-8.2v7h-10.5v-70h10.5v30.4c2.7-5.4,7.3-8.1,13.4-8.1
	C678.8,23.4,686.4,33.1,686.4,47.8 M675.8,47.8c0-9.6-3.9-15-10.9-15c-7,0-11.1,5.5-11.1,15c0,9.6,4.1,15.1,11.1,15.1
	C671.9,62.9,675.8,57.4,675.8,47.8"/>
<rect x="478.7" y="47.8" class="st1" width="46.5" height="23.2"/>
<path d="M43.9,24.5v47.3c0,8.3-2.5,14.3-7.6,17.9c-3.4,2.3-7.8,3.5-13.2,3.5c-5.2,0-10-1.4-13.6-4.1c-3.7-2.7-6.1-6.9-6.4-11.8h10.7
	c0.5,4,3.5,7.3,9.6,7.3c6.8,0,10-4,10-11.4v-9.1c-2.6,5.3-7.1,8.1-13.3,8.1C8.6,72.2,1,62.5,1,47.7C1,33,8.6,23.3,20.1,23.3
	c6.2,0,10.7,2.7,13.3,8.1v-6.9H43.9z M33.6,47.7c0-9.5-4.1-15-11.1-15c-7,0-10.9,5.4-10.9,15c0,9.6,3.9,15,10.9,15
	C29.5,62.7,33.6,57.2,33.6,47.7"/>
<rect x="55.5" y="1" width="10.6" height="70"/>
<path d="M77.2,54.7V24.5h10.7v28c0,7.2,2.5,10.6,7.7,10.6c5.6,0,8.7-4.3,8.7-12.2V24.5h10.6V71h-10.6v-6.7
	c-2.4,5.1-6.3,7.9-13.3,7.9C82.4,72.2,77.2,65.7,77.2,54.7"/>
<path d="M162.2,51.2h-29c0.3,7.4,3.8,11.9,10.6,11.9c4.7,0,7.5-2,8.6-5.7h9.6c-1.3,9.3-7.5,14.8-18.2,14.8
	c-13.3,0-20.9-8.9-20.9-24.3c0-15.5,7.6-24.6,20.4-24.6c12.9,0,19.3,8.8,19.3,21.2C162.6,46,162.5,49,162.2,51.2 M152.3,43.2
	c0-7.8-3.3-11.6-9.1-11.6c-6.1,0-9.9,4.2-10,11.6H152.3z"/>
<path d="M169.1,47.7c0-15,8-24.4,20.6-24.4c12.2,0,19.2,6.5,19.1,17.7h-10.6c-0.4-5.7-3.1-8.5-8.5-8.5c-6.3,0-10,5.6-10,15.2
	c0,9.8,3.4,15.2,10.2,15.2c5.1,0,7.8-2.6,8.4-7.9h10.6c-0.9,11.1-7.7,17.2-19.2,17.2C176.7,72.2,169.1,63,169.1,47.7"/>
<polygon points="238.7,46.3 254.5,71 241.9,71 227.9,48.2 227.9,71 217.4,71 217.4,1 227.9,1 227.9,45.7 242.4,24.5 254.7,24.5 "/>
<polygon points="284,46.3 299.8,71 287.2,71 273.2,48.2 273.2,71 262.7,71 262.7,1 273.2,1 273.2,45.7 287.7,24.5 300,24.5 "/>
<path d="M300,47.7c0-14.7,7.6-24.4,19.1-24.4c6.2,0,10.7,2.7,13.4,8.1v-6.9H343V71h-10.5v-7c-2.7,5.4-7.2,8.2-13.4,8.2
	C307.6,72.2,300,62.5,300,47.7 M332.6,47.7c0-9.5-4.1-15-11.1-15s-10.9,5.4-10.9,15c0,9.6,3.9,15.1,10.9,15.1S332.6,57.3,332.6,47.7
	"/>
<path d="M354.1,24.5h10.7v6.7c2.5-5.4,7-7.9,13-7.9c9.1,0,14.2,5.7,14.2,17.5V71h-10.6V43.9c0-8-2.3-11.6-7.8-11.6
	c-6.2,0-8.8,4.6-8.8,13.2V71h-10.7V24.5z"/>
<path d="M395,91.7v-9.5c1,0.3,2.1,0.4,3.6,0.4c2.7,0,3.9-1.5,3.9-5V24.5h10.6v54.3c0,9.7-4.2,13.8-12.1,13.8
	C398.3,92.6,396.2,92.1,395,91.7 M400,9.7c0-4.7,3.3-7.7,7.8-7.7c4.4,0,7.7,3,7.7,7.7c0,4.8-3.3,7.8-7.7,7.8
	C403.3,17.5,400,14.5,400,9.7"/>
<path d="M421.1,47.7c0-14.7,7.6-24.4,19.1-24.4c6.2,0,10.7,2.7,13.4,8.1v-6.9h10.5V71h-10.5v-7c-2.7,5.4-7.2,8.2-13.4,8.2
	C428.7,72.2,421.1,62.5,421.1,47.7 M453.7,47.7c0-9.5-4.1-15-11.1-15c-7,0-10.9,5.4-10.9,15c0,9.6,3.9,15.1,10.9,15.1
	C449.6,62.8,453.7,57.3,453.7,47.7"/>
</svg>
